<mxfile host="app.diagrams.net" agent="Mozilla/5.0 (Windows NT 10.0; Win64; x64) AppleWebKit/537.36 (KHTML, like Gecko) Chrome/137.0.0.0 Safari/537.36" version="27.1.6">
  <diagram name="PÃ¡gina-1" id="wJR19MpPAnvyn8U_qK2C">
    <mxGraphModel dx="3565" dy="1943" grid="1" gridSize="10" guides="1" tooltips="1" connect="1" arrows="1" fold="1" page="1" pageScale="1" pageWidth="827" pageHeight="1169" math="0" shadow="0">
      <root>
        <mxCell id="0" />
        <mxCell id="1" parent="0" />
        <mxCell id="tWJrHtdp0khsUFPlz2IY-4" value="" style="edgeStyle=orthogonalEdgeStyle;rounded=0;orthogonalLoop=1;jettySize=auto;html=1;" edge="1" parent="1" source="tWJrHtdp0khsUFPlz2IY-1" target="tWJrHtdp0khsUFPlz2IY-3">
          <mxGeometry relative="1" as="geometry" />
        </mxCell>
        <mxCell id="tWJrHtdp0khsUFPlz2IY-1" value="Start" style="ellipse;whiteSpace=wrap;html=1;" vertex="1" parent="1">
          <mxGeometry x="354" y="90" width="120" height="80" as="geometry" />
        </mxCell>
        <mxCell id="tWJrHtdp0khsUFPlz2IY-2" value="End" style="ellipse;whiteSpace=wrap;html=1;" vertex="1" parent="1">
          <mxGeometry x="290" y="1610" width="120" height="80" as="geometry" />
        </mxCell>
        <mxCell id="tWJrHtdp0khsUFPlz2IY-6" value="" style="edgeStyle=orthogonalEdgeStyle;rounded=0;orthogonalLoop=1;jettySize=auto;html=1;" edge="1" parent="1" source="tWJrHtdp0khsUFPlz2IY-3" target="tWJrHtdp0khsUFPlz2IY-5">
          <mxGeometry relative="1" as="geometry" />
        </mxCell>
        <mxCell id="tWJrHtdp0khsUFPlz2IY-3" value="Welcome to pokemon world&#39;s&lt;br&gt;What do you want to do?&lt;br&gt;1.PvP match&lt;br&gt;2. PvE match&lt;br&gt;3. Match record&lt;br&gt;4. Exist game" style="rounded=0;whiteSpace=wrap;html=1;" vertex="1" parent="1">
          <mxGeometry x="294" y="210" width="240" height="120" as="geometry" />
        </mxCell>
        <mxCell id="tWJrHtdp0khsUFPlz2IY-8" value="" style="edgeStyle=orthogonalEdgeStyle;rounded=0;orthogonalLoop=1;jettySize=auto;html=1;" edge="1" parent="1" source="tWJrHtdp0khsUFPlz2IY-5" target="tWJrHtdp0khsUFPlz2IY-7">
          <mxGeometry relative="1" as="geometry" />
        </mxCell>
        <mxCell id="tWJrHtdp0khsUFPlz2IY-5" value="Menu" style="shape=parallelogram;perimeter=parallelogramPerimeter;whiteSpace=wrap;html=1;fixedSize=1;rounded=0;" vertex="1" parent="1">
          <mxGeometry x="354" y="370" width="120" height="60" as="geometry" />
        </mxCell>
        <mxCell id="tWJrHtdp0khsUFPlz2IY-14" value="" style="edgeStyle=orthogonalEdgeStyle;rounded=0;orthogonalLoop=1;jettySize=auto;html=1;" edge="1" parent="1" source="tWJrHtdp0khsUFPlz2IY-7" target="tWJrHtdp0khsUFPlz2IY-11">
          <mxGeometry relative="1" as="geometry" />
        </mxCell>
        <mxCell id="tWJrHtdp0khsUFPlz2IY-33" style="edgeStyle=orthogonalEdgeStyle;rounded=0;orthogonalLoop=1;jettySize=auto;html=1;entryX=0.5;entryY=0;entryDx=0;entryDy=0;" edge="1" parent="1" source="tWJrHtdp0khsUFPlz2IY-7" target="tWJrHtdp0khsUFPlz2IY-32">
          <mxGeometry relative="1" as="geometry">
            <Array as="points">
              <mxPoint x="350" y="500" />
            </Array>
          </mxGeometry>
        </mxCell>
        <mxCell id="tWJrHtdp0khsUFPlz2IY-7" value="Menu != 4" style="rhombus;whiteSpace=wrap;html=1;" vertex="1" parent="1">
          <mxGeometry x="374" y="460" width="80" height="80" as="geometry" />
        </mxCell>
        <mxCell id="tWJrHtdp0khsUFPlz2IY-15" value="" style="edgeStyle=orthogonalEdgeStyle;rounded=0;orthogonalLoop=1;jettySize=auto;html=1;" edge="1" parent="1" source="tWJrHtdp0khsUFPlz2IY-11" target="tWJrHtdp0khsUFPlz2IY-12">
          <mxGeometry relative="1" as="geometry" />
        </mxCell>
        <mxCell id="tWJrHtdp0khsUFPlz2IY-19" value="" style="edgeStyle=orthogonalEdgeStyle;rounded=0;orthogonalLoop=1;jettySize=auto;html=1;" edge="1" parent="1" source="tWJrHtdp0khsUFPlz2IY-11" target="tWJrHtdp0khsUFPlz2IY-18">
          <mxGeometry relative="1" as="geometry" />
        </mxCell>
        <mxCell id="tWJrHtdp0khsUFPlz2IY-11" value="Menu == 1" style="rhombus;whiteSpace=wrap;html=1;" vertex="1" parent="1">
          <mxGeometry x="474" y="560" width="80" height="80" as="geometry" />
        </mxCell>
        <mxCell id="tWJrHtdp0khsUFPlz2IY-16" value="" style="edgeStyle=orthogonalEdgeStyle;rounded=0;orthogonalLoop=1;jettySize=auto;html=1;" edge="1" parent="1" source="tWJrHtdp0khsUFPlz2IY-12" target="tWJrHtdp0khsUFPlz2IY-13">
          <mxGeometry relative="1" as="geometry" />
        </mxCell>
        <mxCell id="tWJrHtdp0khsUFPlz2IY-21" value="" style="edgeStyle=orthogonalEdgeStyle;rounded=0;orthogonalLoop=1;jettySize=auto;html=1;" edge="1" parent="1" source="tWJrHtdp0khsUFPlz2IY-12" target="tWJrHtdp0khsUFPlz2IY-20">
          <mxGeometry relative="1" as="geometry" />
        </mxCell>
        <mxCell id="tWJrHtdp0khsUFPlz2IY-12" value="Menu == 2" style="rhombus;whiteSpace=wrap;html=1;" vertex="1" parent="1">
          <mxGeometry x="600" y="650" width="80" height="80" as="geometry" />
        </mxCell>
        <mxCell id="tWJrHtdp0khsUFPlz2IY-23" value="" style="edgeStyle=orthogonalEdgeStyle;rounded=0;orthogonalLoop=1;jettySize=auto;html=1;" edge="1" parent="1" source="tWJrHtdp0khsUFPlz2IY-13" target="tWJrHtdp0khsUFPlz2IY-22">
          <mxGeometry relative="1" as="geometry" />
        </mxCell>
        <mxCell id="tWJrHtdp0khsUFPlz2IY-13" value="Menu == 3" style="rhombus;whiteSpace=wrap;html=1;" vertex="1" parent="1">
          <mxGeometry x="710" y="750" width="80" height="80" as="geometry" />
        </mxCell>
        <mxCell id="tWJrHtdp0khsUFPlz2IY-28" style="edgeStyle=orthogonalEdgeStyle;rounded=0;orthogonalLoop=1;jettySize=auto;html=1;entryX=0;entryY=0.5;entryDx=0;entryDy=0;" edge="1" parent="1" source="tWJrHtdp0khsUFPlz2IY-18" target="tWJrHtdp0khsUFPlz2IY-26">
          <mxGeometry relative="1" as="geometry" />
        </mxCell>
        <mxCell id="tWJrHtdp0khsUFPlz2IY-18" value="Funcion pvp" style="whiteSpace=wrap;html=1;" vertex="1" parent="1">
          <mxGeometry x="454" y="730" width="120" height="60" as="geometry" />
        </mxCell>
        <mxCell id="tWJrHtdp0khsUFPlz2IY-30" style="edgeStyle=orthogonalEdgeStyle;rounded=0;orthogonalLoop=1;jettySize=auto;html=1;entryX=0.5;entryY=0;entryDx=0;entryDy=0;" edge="1" parent="1" source="tWJrHtdp0khsUFPlz2IY-20" target="tWJrHtdp0khsUFPlz2IY-26">
          <mxGeometry relative="1" as="geometry" />
        </mxCell>
        <mxCell id="tWJrHtdp0khsUFPlz2IY-20" value="Funcion PvE" style="whiteSpace=wrap;html=1;" vertex="1" parent="1">
          <mxGeometry x="580" y="820" width="120" height="60" as="geometry" />
        </mxCell>
        <mxCell id="tWJrHtdp0khsUFPlz2IY-29" style="edgeStyle=orthogonalEdgeStyle;rounded=0;orthogonalLoop=1;jettySize=auto;html=1;entryX=1;entryY=0.5;entryDx=0;entryDy=0;" edge="1" parent="1" source="tWJrHtdp0khsUFPlz2IY-22" target="tWJrHtdp0khsUFPlz2IY-26">
          <mxGeometry relative="1" as="geometry">
            <Array as="points">
              <mxPoint x="750" y="1000" />
            </Array>
          </mxGeometry>
        </mxCell>
        <mxCell id="tWJrHtdp0khsUFPlz2IY-22" value="Record" style="whiteSpace=wrap;html=1;" vertex="1" parent="1">
          <mxGeometry x="690" y="920" width="120" height="60" as="geometry" />
        </mxCell>
        <mxCell id="tWJrHtdp0khsUFPlz2IY-31" style="edgeStyle=orthogonalEdgeStyle;rounded=0;orthogonalLoop=1;jettySize=auto;html=1;entryX=1;entryY=0.5;entryDx=0;entryDy=0;" edge="1" parent="1" source="tWJrHtdp0khsUFPlz2IY-26" target="tWJrHtdp0khsUFPlz2IY-5">
          <mxGeometry relative="1" as="geometry">
            <Array as="points">
              <mxPoint x="590" y="1060" />
              <mxPoint x="860" y="1060" />
              <mxPoint x="860" y="400" />
            </Array>
          </mxGeometry>
        </mxCell>
        <mxCell id="tWJrHtdp0khsUFPlz2IY-26" value="" style="ellipse;whiteSpace=wrap;html=1;aspect=fixed;" vertex="1" parent="1">
          <mxGeometry x="560" y="980" width="40" height="40" as="geometry" />
        </mxCell>
        <mxCell id="tWJrHtdp0khsUFPlz2IY-34" style="edgeStyle=orthogonalEdgeStyle;rounded=0;orthogonalLoop=1;jettySize=auto;html=1;" edge="1" parent="1" source="tWJrHtdp0khsUFPlz2IY-32" target="tWJrHtdp0khsUFPlz2IY-2">
          <mxGeometry relative="1" as="geometry" />
        </mxCell>
        <mxCell id="tWJrHtdp0khsUFPlz2IY-32" value="Saliendo del juego" style="rounded=0;whiteSpace=wrap;html=1;" vertex="1" parent="1">
          <mxGeometry x="290" y="980" width="120" height="60" as="geometry" />
        </mxCell>
      </root>
    </mxGraphModel>
  </diagram>
</mxfile>
